# xmcd
#
# Track frame offsets:
#	150
#	21121
#	44533
#	71297
#	90430
#	122133
#	145145
#	166963
#	187799
#	211467
#	236576
#
# Disc length: 3582 seconds
#
# Revision: 2
# Processed by: cddbd v1.5.2PL0 Copyright (c) Steve Scherf et al.
# Submitted via: EZCDAudioConverter 3.1.4.1
#
DISCID=8e0dfc0b
DTITLE=Hank Williams III - Ghost to a Ghost
DYEAR=2011
DGENRE=Outlaw Country
TTITLE0=Gutter Town
TTITLE1=Day by Day
TTITLE2=Riding the Wave
TTITLE3=Don't Ya Wanna
TTITLE4=Ray Lawrence Jr. [feat. Ray Lawrence Jr.]
TTITLE5=The Devil's Movin' In
TTITLE6=Time To Die
TTITLE7=Troopers Hollar [feat. Trooper]
TTITLE8=Outlaw Convention
TTITLE9=Cunt of a Bitch [feat. Alan King]
TTITLE10=Ghost to a Ghost [feat. Les Claypool, Alan King, Tom Waits, Dave Sher
TTITLE10=man and Troy Medlin]
EXTD=
EXTT0=
EXTT1=
EXTT2=
EXTT3=
EXTT4=
EXTT5=
EXTT6=
EXTT7=
EXTT8=
EXTT9=
EXTT10=
PLAYORDER=
